<svg width="25" height="26" viewBox="0 0 25 26" fill="none" xmlns="http://www.w3.org/2000/svg">
<path d="M9 22.3333C3.26667 24.1999 3.26667 18.9999 1 18.3333M17 24.9999V20.3333C17 18.9999 17.1333 18.4666 16.3333 17.6666C20.0667 17.2666 23.6667 15.7999 23.6667 9.6666C23.665 8.07322 23.0434 6.54301 21.9333 5.39993C22.454 4.01589 22.406 2.4821 21.8 1.13327C21.8 1.13327 20.3333 0.733268 17.1333 2.8666C14.423 2.16072 11.577 2.16072 8.86667 2.8666C5.66667 0.733268 4.2 1.13327 4.2 1.13327C3.59397 2.4821 3.54604 4.01589 4.06667 5.39993C2.9566 6.54301 2.33496 8.07322 2.33333 9.6666C2.33333 15.7999 5.93333 17.2666 9.66667 17.6666C8.86667 18.4666 8.86667 19.2666 9 20.3333V24.9999" stroke="#6EBF7B" stroke-width="2" stroke-linecap="round" stroke-linejoin="round"/>
</svg>
